<?xml version="1.0" standalone="no"?><!-- Generator: Gravit.io --><svg xmlns="http://www.w3.org/2000/svg" xmlns:xlink="http://www.w3.org/1999/xlink" style="isolation:isolate" viewBox="0 0 600 600" width="600" height="600"><defs><clipPath id="_clipPath_v6LoC1wJmukHAkMuS38mvAFTvBzBgwG0"><rect width="600" height="600"/></clipPath></defs><g clip-path="url(#_clipPath_v6LoC1wJmukHAkMuS38mvAFTvBzBgwG0)"><polygon points="133.634,386,53.878,386,14,316.929,53.878,247.859,133.634,247.859,173.512,316.929" fill="rgb(157,142,219)"/><g transform="matrix(1,0,0,1,14,299.429)"><text transform="matrix(1,0,0,1,19.006,22.127)" style="font-family:'Noto Sans';font-weight:700;font-size:20px;font-style:normal;fill:#5532e3;stroke:#000000;stroke-width:0.5;">Программа</text></g><rect x="327" y="49" width="240" height="77" transform="matrix(1,0,0,1,0,0)" fill="rgb(91,131,242)"/><rect x="327" y="281.518" width="240" height="70.823" transform="matrix(1,0,0,1,0,0)" fill="rgb(247,125,151)"/><line x1="173.512" y1="316.929" x2="327" y2="316.929" vector-effect="non-scaling-stroke" stroke-width="4" stroke="rgb(0,0,0)" stroke-linejoin="miter" stroke-linecap="square" stroke-miterlimit="3"/><path d=" M 173.512 316.929 C 215.4 336.424 239.46 367.47 245.662 410.037 C 245.352 453.896 272.474 488.893 327 515" fill="none" vector-effect="non-scaling-stroke" stroke-width="4" stroke="rgb(0,0,0)" stroke-linejoin="miter" stroke-linecap="square" stroke-miterlimit="3"/><path d=" M 173.512 316.929 C 217.06 294.036 240.653 258.794 244.261 211.175 C 243.364 156.605 270.954 115.39 327 87.5" fill="none" vector-effect="non-scaling-stroke" stroke-width="4" stroke="rgb(0,0,0)" stroke-linejoin="miter" stroke-linecap="square" stroke-miterlimit="3"/><rect x="327" y="479.588" width="240" height="70.823" transform="matrix(1,0,0,1,0,0)" fill="rgb(105,255,108)"/><g transform="matrix(1,0,0,1,367.244,70)"><text transform="matrix(1,0,0,1,34.262,22.127)" style="font-family:'Noto Sans';font-weight:700;font-size:20px;font-style:normal;fill:#295adf;stroke:#000000;stroke-width:0.5;">Windows</text></g><g transform="matrix(1,0,0,1,367.244,299.429)"><text transform="matrix(1,0,0,1,45.038,22.127)" style="font-family:'Noto Sans';font-weight:700;font-size:20px;font-style:normal;fill:#f91647;stroke:#000000;stroke-width:0.5;">macOS</text></g><g transform="matrix(1,0,0,1,367.244,497.5)"><text transform="matrix(1,0,0,1,51.879,22.127)" style="font-family:'Noto Sans';font-weight:700;font-size:20px;font-style:normal;fill:#00ff04;stroke:#000000;stroke-width:0.5;">Linux</text></g></g></svg>